<?xml version="1.0" encoding="utf-8"?>
<!-- Generator: Adobe Illustrator 16.0.0, SVG Export Plug-In . SVG Version: 6.00 Build 0)  -->
<!DOCTYPE svg PUBLIC "-//W3C//DTD SVG 1.1//EN" "http://www.w3.org/Graphics/SVG/1.1/DTD/svg11.dtd" [
	<!ENTITY ns_flows "http://ns.adobe.com/Flows/1.0/">
	<!ENTITY ns_extend "http://ns.adobe.com/Extensibility/1.0/">
	<!ENTITY ns_ai "http://ns.adobe.com/AdobeIllustrator/10.0/">
	<!ENTITY ns_graphs "http://ns.adobe.com/Graphs/1.0/">
]>
<svg version="1.1" xmlns:x="&ns_extend;" xmlns:i="&ns_ai;" xmlns:graph="&ns_graphs;"
	 xmlns="http://www.w3.org/2000/svg" xmlns:xlink="http://www.w3.org/1999/xlink" xmlns:a="http://ns.adobe.com/AdobeSVGViewerExtensions/3.0/"
	 x="0px" y="0px" width="864px" height="864px" viewBox="0 0 864 864" enable-background="new 0 0 864 864" xml:space="preserve">
<g id="Layer_2">
	<path fill="#F8D40A" d="M274.399,157.2V58H580v99.2c0,0,83.2,6.4,105.6,17.6c22.4,11.2,60.8,19.2,80,86.4v356
		c-9.6,40.8-59.2,74.4-81.6,82.4c-22.4,8-48,8-48,8V786H231.2v-75.2c0,0-49.601-4.8-56-9.6c-6.4-4.8-62.4-25.6-76.801-84V254.8
		C108,219.601,156,174.8,188,165.2S274.399,157.2,274.399,157.2z"/>
</g>
<g id="Layer_1">
	<path fill-rule="evenodd" clip-rule="evenodd" d="M433.404,340.38c46.359,0,92.722-0.158,139.081,0.072
		c21.419,0.105,37.463,11.336,42.578,28.853c0.474,1.62,1.078,3.294,1.083,4.944c0.047,21.332,0.919,42.715-0.263,63.981
		c-1.41,25.354-16.063,37.331-44.254,37.372c-25.875,0.037-51.758-0.494-77.624-1.25c-21.161-0.619-36.352-16.396-39.227-39.926
		c-1.235-10.125-2.149-20.291-3.542-30.393c-1.192-8.638-6.76-12.674-15.216-13.098c-10.704-0.535-18.003,3.363-19.835,11.953
		c-2.711,12.714-3.942,25.756-6.921,38.396c-1.521,6.458-4.869,12.726-8.47,18.394c-5.019,7.899-12.511,11.663-22.327,11.554
		c-28.726-0.321-57.457-0.097-86.187-0.158c-22.41-0.047-39.823-15.037-40.297-37.529c-0.448-21.199,0.989-42.584,3.494-63.662
		c2.04-17.17,18.817-29.144,38.837-29.274c46.36-0.303,92.725-0.096,139.088-0.096C433.404,340.468,433.404,340.425,433.404,340.38z
		"/>
	<path fill-rule="evenodd" clip-rule="evenodd" d="M428.622,572.55c-28.767-1.719-55.121-10.004-80.603-21.595
		c-5.674-2.581-8.887-7.244-6.178-13.831c2.77-6.733,8.077-8.351,14.602-6.051c10.144,3.58,20.094,7.733,30.315,11.062
		c36.384,11.852,71.582,7.312,105.891-8.213c3.101-1.403,6.255-2.68,9.366-4.058c6.578-2.914,12.364-2.349,16.017,4.461
		c3.275,6.1,0.7,12.092-7.273,15.572c-11.151,4.868-22.323,10.118-34.016,13.196C460.966,567.245,444.688,569.487,428.622,572.55z"
		/>
	<path fill-rule="evenodd" clip-rule="evenodd" d="M673.808,394.44c-11.639,0-23.284-0.25-34.911,0.105
		c-6.009,0.183-8.763-1.323-8.592-7.994c0.532-20.662-2.393-16.729,17.001-17.247c21.84-0.583,43.692-0.86,65.516-1.807
		c8.059-0.351,11.129,2.195,11.035,10.47c-0.171,14.691,0.242,15.026-14.296,15.645c-11.896,0.509-23.834,0.104-35.753,0.104
		C673.808,393.958,673.808,394.199,673.808,394.44z"/>
	<path fill-rule="evenodd" clip-rule="evenodd" d="M240.566,392.921c-30.608,0-60.3,0-90.827,0c0-6.922,0-14.397,0-22.306
		c1.145-0.287,2.461-0.882,3.788-0.909c26.412-0.532,52.829-0.881,79.235-1.573c5.816-0.153,8.394,1.523,7.89,7.65
		C240.234,380.852,240.566,385.984,240.566,392.921z"/>
</g>
</svg>
